<?xml version="1.0" encoding="UTF-8" standalone="no"?>
<svg
   xmlns:dc="http://purl.org/dc/elements/1.1/"
   xmlns:cc="http://creativecommons.org/ns#"
   xmlns:rdf="http://www.w3.org/1999/02/22-rdf-syntax-ns#"
   xmlns:svg="http://www.w3.org/2000/svg"
   xmlns="http://www.w3.org/2000/svg"
   xmlns:sodipodi="http://sodipodi.sourceforge.net/DTD/sodipodi-0.dtd"
   xmlns:inkscape="http://www.inkscape.org/namespaces/inkscape"
   width="2500"
   height="2500"
   viewBox="0 0 256 256"
   preserveAspectRatio="xMinYMin meet"
   version="1.1"
   id="svg6"
   sodipodi:docname="bootstrap.svg"
   inkscape:version="0.92.1 r15371">
  <metadata
     id="metadata12">
    <rdf:RDF>
      <cc:Work
         rdf:about="">
        <dc:format>image/svg+xml</dc:format>
        <dc:type
           rdf:resource="http://purl.org/dc/dcmitype/StillImage" />
      </cc:Work>
    </rdf:RDF>
  </metadata>
  <defs
     id="defs10" />
  <sodipodi:namedview
     pagecolor="#ffffff"
     bordercolor="#666666"
     borderopacity="1"
     objecttolerance="10"
     gridtolerance="10"
     guidetolerance="10"
     inkscape:pageopacity="0"
     inkscape:pageshadow="2"
     inkscape:window-width="1366"
     inkscape:window-height="705"
     id="namedview8"
     showgrid="false"
     inkscape:zoom="0.13350176"
     inkscape:cx="666.29704"
     inkscape:cy="1892.9864"
     inkscape:window-x="-8"
     inkscape:window-y="-8"
     inkscape:window-maximized="1"
     inkscape:current-layer="svg6" />
  <rect
     style="opacity:1;fill:#563d7c;fill-opacity:1;stroke:none;stroke-width:0.3438592;stroke-miterlimit:4;stroke-dasharray:none;stroke-opacity:1"
     id="rect4489"
     width="256.18839"
     height="256.18839"
     x="0"
     y="-0.18838234" />
  <path
     d="M 97.268196,113.14381 V 76.890808 h 31.910994 c 3.04,0 5.97,0.253 8.792,0.76 2.82199,0.506 5.319,1.41 7.49,2.713 2.17,1.303 3.907,3.112 5.21,5.427 1.302,2.316 1.954,5.283 1.954,8.9 0,6.513002 -1.954,11.217002 -5.862,14.111002 -3.907,2.895 -8.9,4.342 -14.979,4.342 z M 63.185191,50.405808 V 205.40581 h 75.111989 c 6.94701,0 13.71301,-0.868 20.29801,-2.605 6.585,-1.737 12.44601,-4.414 17.584,-8.032 5.137,-3.618 9.226,-8.286 12.265,-14.002 3.04,-5.717 4.559,-12.483 4.559,-20.298 0,-9.697 -2.352,-17.982 -7.055,-24.856 -4.704,-6.875 -11.832,-11.687 -21.384,-14.437 6.947,-3.328 12.194,-7.598 15.74,-12.808 3.545,-5.21 5.318,-11.722002 5.318,-19.538001 0,-7.236001 -1.194,-13.314001 -3.582,-18.235001 -2.388,-4.92 -5.753,-8.864 -10.095,-11.831 -4.341,-2.967 -9.551,-5.102 -15.63,-6.404 -6.078,-1.303 -12.808,-1.954 -20.189,-1.954 z M 97.268196,178.92081 v -42.549 h 37.120994 c 7.381,0 13.315,1.7 17.802,5.102 4.486,3.401 6.72999,9.081 6.72999,17.041 0,4.053 -0.688,7.381 -2.06299,9.986 -1.375,2.605 -3.22,4.668 -5.536,6.187 -2.315,1.52 -4.99301,2.605 -8.032,3.257 -3.04,0.65 -6.223,0.976 -9.552,0.976 z"
     id="path4"
     inkscape:connector-curvature="0"
     style="fill:#ffffff;stroke-width:1" />
</svg>
