<?xml version="1.0" encoding="UTF-8" standalone="no"?>
<svg
   xmlns:dc="http://purl.org/dc/elements/1.1/"
   xmlns:cc="http://creativecommons.org/ns#"
   xmlns:rdf="http://www.w3.org/1999/02/22-rdf-syntax-ns#"
   xmlns:svg="http://www.w3.org/2000/svg"
   xmlns="http://www.w3.org/2000/svg"
   xmlns:sodipodi="http://sodipodi.sourceforge.net/DTD/sodipodi-0.dtd"
   xmlns:inkscape="http://www.inkscape.org/namespaces/inkscape"
   width="1773"
   height="2000"
   viewBox="0 0 256 288.8"
   preserveAspectRatio="xMinYMin meet"
   version="1.1"
   id="svg12"
   sodipodi:docname="html5.svg"
   inkscape:version="0.92.1 r15371">
  <metadata
     id="metadata18">
    <rdf:RDF>
      <cc:Work
         rdf:about="">
        <dc:format>image/svg+xml</dc:format>
        <dc:type
           rdf:resource="http://purl.org/dc/dcmitype/StillImage" />
        <dc:title></dc:title>
      </cc:Work>
    </rdf:RDF>
  </metadata>
  <defs
     id="defs16" />
  <sodipodi:namedview
     pagecolor="#ffffff"
     bordercolor="#666666"
     borderopacity="1"
     objecttolerance="10"
     gridtolerance="10"
     guidetolerance="10"
     inkscape:pageopacity="0"
     inkscape:pageshadow="2"
     inkscape:window-width="1366"
     inkscape:window-height="705"
     id="namedview14"
     showgrid="false"
     inkscape:zoom="0.0944"
     inkscape:cx="886.5"
     inkscape:cy="1250"
     inkscape:window-x="-8"
     inkscape:window-y="-8"
     inkscape:window-maximized="1"
     inkscape:current-layer="svg12" />
  <path
     d="M 255.555,-1.434 232.314,258.926 127.844,287.888 23.662,258.966 0.445,-1.434 Z"
     id="path2"
     inkscape:connector-curvature="0"
     style="fill:#e44d26" />
  <path
     d="m 128,265.75 84.417,-23.403 19.86,-222.49 H 128 Z"
     id="path4"
     inkscape:connector-curvature="0"
     style="fill:#f16529" />
  <path
     d="M 82.82,83.732 H 128 V 51.795 H 47.917 l 0.764,8.568 7.85,88.01 H 128 V 116.436 H 85.739 Z m 7.198,80.61 h -32.06 l 4.474,50.146 65.421,18.16 0.147,-0.04 V 199.38 l -0.14,0.037 -35.568,-9.604 z"
     id="path6"
     inkscape:connector-curvature="0"
     style="fill:#ebebeb" />
  <path
     d="m 127.89,148.373 h 39.327 l -3.708,41.42 -35.62,9.614 v 33.226 l 65.473,-18.145 0.48,-5.396 7.506,-84.08 0.779,-8.576 H 127.89 Z m 0,-64.719 v 0.078 h 77.143 l 0.64,-7.178 1.456,-16.191 0.763,-8.568 H 127.89 v 31.86 z"
     id="path10"
     inkscape:connector-curvature="0"
     style="fill:#ffffff" />
</svg>
